<svg width="27" height="33" viewBox="0 0 27 33" fill="none" xmlns="http://www.w3.org/2000/svg">
<path d="M10.2176 27.3H2.92878C2.75422 27.3 2.58895 27.2134 2.49281 27.0677C0.448531 23.9695 1.78649 22.6593 4.4584 20.7C4.4584 20.7 4.45839 17.0999 4.45839 11.6999C4.45839 8.98791 7.81158 6.20955 11.3723 5.36134M10.2176 27.3C10.2176 27.3 10.4861 31.5 13.5 31.5C16.5139 31.5 17.1166 27.3 17.1166 27.3M10.2176 27.3L17.1166 27.3M17.1166 27.3L24.0712 27.3001C24.2458 27.3001 24.4111 27.2135 24.5072 27.0678C26.5515 23.9696 25.2135 22.6594 22.5416 20.7C22.5416 20.7 22.5416 17.1 22.5416 11.7C22.5416 8.86655 19.2439 6.06277 15.511 5.36134M11.3723 5.36134C12.0816 5.19237 12.7991 5.1 13.5 5.1C14.0434 5.1 14.9592 5.25766 15.511 5.36134M11.3723 5.36134C11.3723 5.36134 10.4861 1.5 13.5 1.5C16.2816 1.5 15.511 5.36134 15.511 5.36134" stroke="black" stroke-opacity="0.5" stroke-width="2.66304"/>
</svg>
