<svg width="20" height="21" viewBox="0 0 20 21" fill="none" xmlns="http://www.w3.org/2000/svg">
<path fill-rule="evenodd" clip-rule="evenodd" d="M10 20.5C15.5228 20.5 20 16.0228 20 10.5C20 4.97715 15.5228 0.5 10 0.5C4.47715 0.5 0 4.97715 0 10.5C0 16.0228 4.47715 20.5 10 20.5ZM12.7207 7.20833C12.7207 8.70411 11.5006 9.91667 9.99548 9.91667C8.49038 9.91667 7.27026 8.70411 7.27026 7.20833C7.27026 5.71256 8.49038 4.5 9.99548 4.5C11.5006 4.5 12.7207 5.71256 12.7207 7.20833ZM4 14.7916C5.09054 12.0833 10.0001 12.0833 10.0001 12.0833C10.0001 12.0833 14.9097 12.0833 16.0003 14.7916C14.9097 17.5 10.0001 17.5 10.0001 17.5C10.0001 17.5 5.09054 17.5 4 14.7916Z" fill="#A2A8B0"/>
</svg>
