<svg width="20" height="20" viewBox="0 0 20 20" fill="none" xmlns="http://www.w3.org/2000/svg">
<path fill-rule="evenodd" clip-rule="evenodd" d="M10 16C10.5691 16 11.0546 15.7839 11.562 15.6202C11.8368 15.5316 12.1326 15.5994 12.3637 15.7725L13.4213 16.5651C14.0868 17.0638 15.0348 16.5796 15.0209 15.7482L15.0096 15.0766C15.0037 14.7197 15.1912 14.3901 15.4857 14.1885C17.4208 12.8639 18.4068 11.1019 18.4068 8.75C18.4068 4.60813 14.8325 1.5 10 1.5C5.1675 1.5 1.69119 4.60813 1.69119 8.75C1.69119 12.8925 5.1675 16 10 16ZM10 0C15.5225 0 20 3.91813 20 8.75C20 11.3397 18.7114 13.6634 16.6675 15.2647C16.411 15.4657 16.25 15.7684 16.25 16.0943V18.2235C16.25 19.003 15.3977 19.4828 14.7312 19.0784L12.1858 17.5339C11.9816 17.41 11.7401 17.3649 11.5034 17.3967C11.0129 17.4628 10.5115 17.5 10 17.5C4.4775 17.5 0 13.5825 0 8.75C0 3.91813 4.4775 0 10 0Z" fill="#A2A8B0"/>
</svg>
