<svg width="22" height="22" viewBox="0 0 22 22" fill="none" xmlns="http://www.w3.org/2000/svg">
<path d="M2.33782 14.3333C1.48697 14.987 1 15.746 1 16.5556C1 19.0101 5.47716 21 11 21C16.5229 21 21 19.0101 21 16.5556C21 15.746 20.513 14.987 19.6622 14.3333M11 4.88889V10.4444M8.22222 7.66667H13.7778M17.6667 7.91358C17.6667 11.7319 14.6819 14.8271 11 16.5556C7.3181 14.8271 4.33333 11.7319 4.33333 7.91358C4.33333 4.09531 7.3181 1 11 1C14.6819 1 17.6667 4.09531 17.6667 7.91358Z" stroke="#BA75FE" stroke-width="1.66667" stroke-linecap="round" stroke-linejoin="round"/>
</svg>
