<svg width="18" height="18" viewBox="0 0 18 18" fill="none" xmlns="http://www.w3.org/2000/svg">
<path d="M0.818658 5.89162C3.08639 3.56065 4.86752 2.15387 7.56065 0.568411C8.44849 0.0457407 9.55151 0.0457407 10.4393 0.568411C13.1325 2.15387 14.9136 3.56065 17.1813 5.89162C17.7126 6.43769 18 7.17395 18 7.93581V14.25C18 15.9069 16.6569 17.25 15 17.25H11V13.25C11 12.6205 10.7036 12.0277 10.2 11.65C9.48889 11.1167 8.51111 11.1167 7.8 11.65C7.29639 12.0277 7 12.6205 7 13.25V17.25H3C1.34315 17.25 0 15.9069 0 14.25V7.93581C0 7.17395 0.287398 6.43769 0.818658 5.89162Z" fill="#BA75FE"/>
</svg>
