<svg width="54" height="55" viewBox="0 0 54 55" fill="none" xmlns="http://www.w3.org/2000/svg">
<path fill-rule="evenodd" clip-rule="evenodd" d="M31.2624 2.20862C28.8019 -0.358837 24.6981 -0.358837 22.2376 2.20862L2.14423 23.1756C-0.172534 25.5931 -0.17254 29.4069 2.14423 31.8244L22.2376 52.7914C24.6981 55.3588 28.802 55.3588 31.2624 52.7914L51.3558 31.8244C53.6725 29.4069 53.6725 25.5931 51.3558 23.1756L31.2624 2.20862ZM17.5357 18.8069C16.309 18.8069 15.4241 19.9821 15.7632 21.161L19.4409 33.9476C19.7265 34.9409 20.6352 35.625 21.6687 35.625V35.625C22.6988 35.625 23.6053 34.9454 23.894 33.9567L26.5994 24.6926C26.6103 24.655 26.6448 24.6292 26.6839 24.6292V24.6292C26.7231 24.6292 26.7575 24.655 26.7685 24.6925L29.4811 33.9576C29.7705 34.9459 30.6769 35.625 31.7067 35.625V35.625C32.7406 35.625 33.6496 34.9406 33.9354 33.947L37.613 21.1606C37.9521 19.9819 37.0673 18.8069 35.8408 18.8069V18.8069C34.9875 18.8069 34.2456 19.3923 34.0473 20.2223L31.6047 30.4441C31.5944 30.4869 31.5561 30.5172 31.5121 30.5172V30.5172C31.4688 30.5172 31.431 30.488 31.42 30.4462L28.7849 20.4245C28.5343 19.4713 27.6726 18.8069 26.687 18.8069V18.8069C25.7024 18.8069 24.8413 19.47 24.5898 20.422L21.9469 30.4255C21.9365 30.465 21.9008 30.4925 21.8599 30.4925V30.4925C21.8183 30.4925 21.782 30.464 21.7723 30.4235L19.3294 20.2217C19.1307 19.392 18.3889 18.8069 17.5357 18.8069V18.8069Z" fill="url(#paint0_linear_2063_2930)"/>
<defs>
<linearGradient id="paint0_linear_2063_2930" x1="13.2623" y1="-2.5" x2="57.3455" y2="16.7977" gradientUnits="userSpaceOnUse">
<stop stop-color="#CE58E1"/>
<stop offset="1" stop-color="#5D4DBA"/>
</linearGradient>
</defs>
</svg>
