<svg width="22" height="23" viewBox="0 0 22 23" fill="none" xmlns="http://www.w3.org/2000/svg">
<circle cx="7" cy="11.5" r="1" fill="#A2A8B0"/>
<circle cx="11" cy="11.5" r="1" fill="#A2A8B0"/>
<circle cx="15" cy="11.5" r="1" fill="#A2A8B0"/>
<path d="M2.29167 18.2214V21.2416C2.29167 21.8851 2.89067 22.3611 3.51756 22.2157L6.47616 21.5297C5.87265 21.257 5.58126 20.5808 5.04167 20.2083L4.56803 20.3662C4.18271 20.4947 3.80973 20.1419 3.91656 19.75C3.39226 19.2872 2.71984 18.7753 2.29167 18.2214Z" fill="#A2A8B0"/>
<path fill-rule="evenodd" clip-rule="evenodd" d="M3.91656 19.75C1.68524 17.7555 0.108186 14.7283 0.108186 11.5C0.108186 5.48462 4.98462 0.608186 11 0.608186C17.0154 0.608186 21.8918 5.48462 21.8918 11.5C21.8918 17.5154 17.0154 22.3918 11 22.3918C8.74627 22.3918 6.77909 21.3808 5.04167 20.2083C5.04167 20.2083 5.95833 19.5607 6.875 19.75C7.69309 19.919 9.87129 20.6667 11 20.6667C16.0626 20.6667 20.1667 16.5626 20.1667 11.5C20.1667 6.43739 16.0626 2.33333 11 2.33333C5.93739 2.33333 1.83333 6.43739 1.83333 11.5C1.83333 13.7092 3.92979 17.142 3.91656 17.3187C3.91656 18.375 3.91656 19.75 3.91656 19.75Z" fill="#A2A8B0"/>
<path fill-rule="evenodd" clip-rule="evenodd" d="M11 22.5C17.0751 22.5 22 17.5751 22 11.5C22 5.42487 17.0751 0.5 11 0.5C4.92487 0.5 0 5.42487 0 11.5C0 14.0311 0.854884 16.3626 2.29167 18.2214C2.71984 18.7753 3.39226 19.2872 3.91656 19.75C1.68524 17.7555 0.108186 14.7283 0.108186 11.5C0.108186 5.48462 4.98462 0.608186 11 0.608186C17.0154 0.608186 21.8918 5.48462 21.8918 11.5C21.8918 17.5154 17.0154 22.3918 11 22.3918C8.74627 22.3918 6.77909 21.3808 5.04167 20.2083C5.58126 20.5808 5.87265 21.257 6.47616 21.5297C7.85601 22.153 9.38749 22.5 11 22.5Z" fill="#A2A8B0"/>
</svg>
