<svg width="19" height="19" viewBox="0 0 19 19" fill="none" xmlns="http://www.w3.org/2000/svg">
<path d="M6.5 11.7049V5.1881C6.5 4.77368 6.75561 4.4022 7.14266 4.25412L12.7553 2.10676C13.0151 2.00734 13.2191 1.80203 13.3614 1.56291C13.6164 1.13433 14.113 0.503496 14.8285 0.500033C16.4942 0.491971 16.4942 1.95087 16.4942 1.95087V13.962C16.4942 14.0147 16.4988 14.0672 16.4998 14.1199C16.5053 14.3934 16.4019 15.2962 14.8285 15.492C14.1513 15.5763 13.6655 14.9765 13.3992 14.5225C13.2296 14.2332 12.9663 13.9957 12.6396 13.9201L7.27465 12.6792C6.82115 12.5743 6.5 12.1704 6.5 11.7049Z" fill="#A2A8B0"/>
<path d="M6 12.5V4.5H2.5C1.94772 4.5 1.5 4.94772 1.5 5.5V11.5C1.5 12.0523 1.94772 12.5 2.5 12.5H6Z" fill="#A2A8B0"/>
<path d="M1 10.5V6.5C0.337274 7.17643 0.427443 7.4172 0.199372 8.04123C0.0913244 8.33686 0.0913244 8.66314 0.199372 8.95877C0.427443 9.5828 0.337274 9.82357 1 10.5Z" fill="#A2A8B0"/>
<path d="M5.5 13H2.5L3.43115 17.1902C3.47595 17.3918 3.58093 17.5762 3.73825 17.71C4.02702 17.9555 4.26434 18.1208 4.53196 18.2685C4.81845 18.4265 5.17204 18.4065 5.43897 18.2173C5.80777 17.9558 6.07847 17.6859 6.31068 17.3275C6.44324 17.1229 6.46737 16.8695 6.40824 16.633L5.5 13Z" fill="#A2A8B0"/>
<path d="M17 6.5C18.5 7.5 18.2676 8.23871 17 9.5V6.5Z" fill="#A2A8B0"/>
</svg>
