<svg width="25" height="24" viewBox="0 0 25 24" fill="none" xmlns="http://www.w3.org/2000/svg">
<path fill-rule="evenodd" clip-rule="evenodd" d="M12.4987 18.8182C15.6367 18.8182 18.1805 16.2744 18.1805 13.1364C18.1805 9.99845 15.6367 7.45459 12.4987 7.45459C9.36074 7.45459 6.81689 9.99845 6.81689 13.1364C6.81689 16.2744 9.36074 18.8182 12.4987 18.8182ZM12.4987 16.5536C10.6114 16.5536 9.08155 15.0237 9.08155 13.1364C9.08155 11.2491 10.6114 9.71925 12.4987 9.71925C14.386 9.71925 15.9159 11.2491 15.9159 13.1364C15.9159 15.0237 14.386 16.5536 12.4987 16.5536Z" fill="#A2A8B0"/>
<path fill-rule="evenodd" clip-rule="evenodd" d="M9.72781 0.63623C8.1635 0.63623 6.79992 1.70088 6.42051 3.21849L5.92971 5.18168H3.40787C1.52509 5.18168 -0.0012207 6.70799 -0.0012207 8.59078V19.9544C-0.0012207 21.8373 1.52509 23.3635 3.40787 23.3635H21.5897C23.4725 23.3635 24.9988 21.8373 24.9988 19.9544V8.59078C24.9988 6.70799 23.4725 5.18168 21.5897 5.18168H19.0679L18.5771 3.21849C18.1976 1.70088 16.8341 0.63623 15.2697 0.63623H9.72781ZM8.62538 3.76971C8.75185 3.26384 9.20637 2.90896 9.72781 2.90896H15.2697C15.7912 2.90896 16.2457 3.26384 16.3722 3.76971L16.863 5.7329C17.1159 6.74465 18.0249 7.45441 19.0679 7.45441H21.5897C22.2173 7.45441 22.7261 7.96318 22.7261 8.59078V19.9544C22.7261 20.582 22.2173 21.0908 21.5897 21.0908H3.40787C2.78028 21.0908 2.27151 20.582 2.27151 19.9544V8.59078C2.27151 7.96318 2.78028 7.45441 3.40787 7.45441H5.92971C6.9726 7.45441 7.88164 6.74465 8.13459 5.7329L8.62538 3.76971Z" fill="#A2A8B0"/>
</svg>
