<svg width="20" height="17" viewBox="0 0 20 17" fill="none" xmlns="http://www.w3.org/2000/svg">
<path fill-rule="evenodd" clip-rule="evenodd" d="M6.31579 9.02979C8.6412 9.02979 10.5263 7.12033 10.5263 4.7649C10.5263 2.40946 8.6412 0.5 6.31579 0.5C3.99038 0.5 2.10526 2.40946 2.10526 4.7649C2.10526 7.12033 3.99038 9.02979 6.31579 9.02979ZM11.5786 4.7649C11.5786 5.59353 11.3453 6.36697 10.9416 7.02149C11.5562 8.21496 12.7893 9.02973 14.2102 9.02973C16.2449 9.02973 17.8944 7.35895 17.8944 5.29795C17.8944 3.23694 16.2449 1.56616 14.2102 1.56616C12.9918 1.56616 11.9115 2.16523 11.2409 3.08844C11.4583 3.60305 11.5786 4.16973 11.5786 4.7649ZM11.0593 10.5951C12.0918 11.6195 12.8147 13.1006 13.1956 14.9007C13.2372 15.0936 13.2466 15.2691 13.2279 15.4271H14.508H18.6003C19.5131 15.4271 20.1628 14.9706 19.9644 14.0575C19.2937 10.9159 17.3959 8.90843 14.508 9.03548C13.0333 9.10037 11.8986 9.63324 11.0593 10.5951ZM5.82699 16.5H1.62039C0.563833 16.5 -0.188199 15.9669 0.0414459 14.9007C0.817756 11.2323 2.6337 9.17818 5.82699 9.03645C9.16972 8.88808 11.3665 11.2323 12.1428 14.9007C12.3724 15.9669 11.6204 16.5 10.5638 16.5H5.82699Z" fill="#A2A8B0"/>
</svg>
