<svg width="20" height="15" viewBox="0 0 20 15" fill="none" xmlns="http://www.w3.org/2000/svg">
<path d="M12.2846 3.26063C11.953 3.03105 11.5 3.2684 11.5 3.67173V5.5C11.5 5.77614 11.276 5.99946 10.9999 6.00429C6.86656 6.07667 4.20861 7.07284 2.56419 9.68561C2.27189 10.15 2.92888 10.5941 3.38388 10.2873C5.75685 8.68758 8.12172 9.00059 10.4082 9H11C11.2761 9 11.5 9.22386 11.5 9.5V10.5718C11.5 10.9699 11.9426 11.2084 12.2751 10.9893L17.3819 7.62471C17.6776 7.42984 17.6826 6.9977 17.3914 6.79609L12.2846 3.26063ZM10.4082 1.39023C10.4082 0.984444 10.8661 0.747665 11.1972 0.982211L19.424 6.80943C19.7053 7.0087 19.7053 7.42619 19.424 7.62546L11.1972 13.4527C10.8661 13.6872 10.4082 13.4504 10.4082 13.0447V10.5146C10.4082 10.2384 10.184 10.0141 9.90779 10.0161C6.68672 10.0395 3.67348 10.3546 1.0306 13.9624C0.72633 14.3778 0.0325012 14.1787 0.0789242 13.6659C0.410727 10.0008 2.06789 4.75786 9.90666 4.46881C10.1807 4.45871 10.4082 4.23629 10.4082 3.96204V1.39023Z" fill="#A2A8B0"/>
</svg>
