<svg width="22" height="23" viewBox="0 0 22 23" fill="none" xmlns="http://www.w3.org/2000/svg">
<path fill-rule="evenodd" clip-rule="evenodd" d="M11 22.5C17.0751 22.5 22 17.5751 22 11.5C22 5.42487 17.0751 0.5 11 0.5C4.92487 0.5 0 5.42487 0 11.5C0 17.5751 4.92487 22.5 11 22.5ZM10.0442 13.5363H11.6C11.6047 13.1958 11.6535 12.8934 11.7465 12.629C11.8395 12.3602 12.0163 12.1116 12.2767 11.8831C12.5791 11.6098 12.8605 11.3365 13.1209 11.0632C13.3814 10.7854 13.593 10.4875 13.7558 10.1694C13.9186 9.84677 14 9.48835 14 9.09409C14 8.54749 13.8814 8.08154 13.6442 7.69624C13.4116 7.30645 13.0744 7.01075 12.6326 6.80914C12.1907 6.60305 11.6581 6.5 11.0349 6.5C10.4721 6.5 9.96279 6.59633 9.50698 6.78898C9.05116 6.98163 8.68837 7.27061 8.4186 7.65591C8.14884 8.04122 8.0093 8.51613 8 9.08065H9.6814C9.6907 8.78495 9.75814 8.54749 9.88372 8.36828C10.0093 8.18459 10.1744 8.05018 10.3791 7.96505C10.5837 7.87545 10.8023 7.83065 11.0349 7.83065C11.314 7.83065 11.5465 7.88217 11.7326 7.98522C11.9233 8.08826 12.0674 8.23835 12.1651 8.43548C12.2628 8.63262 12.3116 8.87231 12.3116 9.15457C12.3116 9.41443 12.2605 9.64516 12.1581 9.84677C12.0558 10.0439 11.9186 10.2321 11.7465 10.4113C11.5744 10.586 11.3814 10.772 11.1674 10.9691C10.893 11.2289 10.6721 11.4754 10.5047 11.7083C10.3419 11.9413 10.2256 12.2012 10.1558 12.4879C10.086 12.7702 10.0488 13.1196 10.0442 13.5363ZM10.1628 15.0215C9.9907 15.1873 9.90465 15.3911 9.90465 15.6331C9.90465 15.875 9.9907 16.0811 10.1628 16.2513C10.3349 16.4171 10.5698 16.5 10.8674 16.5C11.1651 16.5 11.4 16.4171 11.5721 16.2513C11.7442 16.0811 11.8302 15.875 11.8302 15.6331C11.8302 15.3911 11.7442 15.1873 11.5721 15.0215C11.4 14.8513 11.1651 14.7661 10.8674 14.7661C10.5698 14.7661 10.3349 14.8513 10.1628 15.0215Z" fill="#A2A8B0"/>
</svg>
