<svg width="30" height="28" viewBox="0 0 30 28" fill="none" xmlns="http://www.w3.org/2000/svg">
<path d="M14.2757 0.543712C14.5636 -0.0698984 15.4364 -0.0698987 15.7243 0.543712L19.3739 8.32278C19.4905 8.57132 19.7264 8.7427 19.9988 8.7768L28.5249 9.84396C29.1975 9.92813 29.4672 10.7582 28.9726 11.2216L22.702 17.0965C22.5017 17.2842 22.4116 17.5615 22.4633 17.8311L24.0831 26.2697C24.2109 26.9353 23.5048 27.4483 22.9113 27.1211L15.3862 22.9729C15.1458 22.8404 14.8542 22.8404 14.6138 22.9729L7.08874 27.1211C6.49517 27.4483 5.78911 26.9353 5.91687 26.2697L7.53667 17.8311C7.58842 17.5615 7.49831 17.2842 7.29798 17.0965L1.02745 11.2216C0.532829 10.7582 0.80252 9.92813 1.47506 9.84396L10.0012 8.7768C10.2736 8.7427 10.5095 8.57132 10.6261 8.32278L14.2757 0.543712Z" fill="#FED875"/>
</svg>
